<?xml version="1.0" encoding="utf-8"?>
<!-- Generator: Adobe Illustrator 25.4.1, SVG Export Plug-In . SVG Version: 6.00 Build 0)  -->
<svg version="1.1" id="Layer_1" xmlns="http://www.w3.org/2000/svg" xmlns:xlink="http://www.w3.org/1999/xlink" x="0px" y="0px"
	 viewBox="0 0 290.3 97.4" style="enable-background:new 0 0 290.3 97.4;" xml:space="preserve">
<style type="text/css">
	
		.st0{clip-path:url(#SVGID_00000114760176984495685490000003468128560920313003_);fill:url(#SVGID_00000000910492892764184320000000628584124674998198_);}
	
		.st1{clip-path:url(#SVGID_00000058579967385256696970000001757612040332797069_);fill:url(#SVGID_00000081627067602987061710000007403726139116191891_);}
	
		.st2{clip-path:url(#SVGID_00000072977247799592124890000015177961618974152627_);fill:url(#SVGID_00000065074451934439001380000012440184510806535852_);}
	
		.st3{clip-path:url(#SVGID_00000101079643499181318550000011279544819275631024_);fill:url(#SVGID_00000093896186119972105700000010684892125320884109_);}
	.st4{fill:#58595B;}
</style>
<g>
	<g>
		<g>
			<g>
				<g>
					<g>
						<defs>
							<path id="SVGID_1_" d="M25,20.9c-7.3,2.3-11,5.8-14.6,20c-3.1,13.4-10.2,35.7-2.9,39c4.1,2.8,10,1.2,14.7,0.3
								c4.9-1.1,9.1-2.2,14.7-3c-8.4-0.9-14-2.3-17.5-7.7c-4.9-6.9-1.8-22.9,1.8-31.5c3.8-9.2,10.9-11.8,18.7-12.4
								c6-0.3,11.7,1,15.8,3.2c-3.6-5.5-13.1-8.4-21.8-8.7C30.7,20,27.6,20.3,25,20.9"/>
						</defs>
						<clipPath id="SVGID_00000006692569986726799690000006536792534884412055_">
							<use xlink:href="#SVGID_1_"  style="overflow:visible;"/>
						</clipPath>
						
							<linearGradient id="SVGID_00000180330769650163903560000012696089002435075243_" gradientUnits="userSpaceOnUse" x1="-1028.4958" y1="29.4742" x2="-1026.4305" y2="29.4742" gradientTransform="matrix(24.1263 0.8878 -0.8878 24.1263 24844.9766 252.7116)">
							<stop  offset="0" style="stop-color:#40AFC9"/>
							<stop  offset="1.120000e-02" style="stop-color:#40AFC9"/>
							<stop  offset="0.5" style="stop-color:#0098B8"/>
							<stop  offset="0.9944" style="stop-color:#107D83"/>
							<stop  offset="1" style="stop-color:#107D83"/>
						</linearGradient>
						
							<polygon style="clip-path:url(#SVGID_00000006692569986726799690000006536792534884412055_);fill:url(#SVGID_00000180330769650163903560000012696089002435075243_);" points="
							2.3,19 56,20.9 53.7,84.2 0,82.2 						"/>
					</g>
				</g>
			</g>
		</g>
		<g>
			<g>
				<g>
					<g>
						<defs>
							<path id="SVGID_00000068656898764939387690000008970592760223344516_" d="M66.3,3.3c-4.9,1.1-9.1,2.2-14.7,3
								c8.4,0.9,14,2.3,17.5,7.7c4.9,6.9,1.8,22.9-1.8,31.5c-3.8,9.2-10.9,11.8-18.7,12.4c-1,0.1-2,0.1-3,0
								c-4.9-0.2-9.4-1.4-12.8-3.2c3.6,5.4,13.1,8.4,21.8,8.7c3.2,0.1,6.4-0.1,9-0.8c7.3-2.3,11-5.8,14.6-20
								c3.1-13.4,10.2-35.7,2.9-39c-1.6-1.1-3.4-1.5-5.4-1.6C72.6,1.9,69.2,2.7,66.3,3.3"/>
						</defs>
						<clipPath id="SVGID_00000148632924043965250490000004600081752561695148_">
							<use xlink:href="#SVGID_00000068656898764939387690000008970592760223344516_"  style="overflow:visible;"/>
						</clipPath>
						
							<linearGradient id="SVGID_00000089547584417798138640000015297466209798200452_" gradientUnits="userSpaceOnUse" x1="-1043.5734" y1="48.6823" x2="-1041.5081" y2="48.6823" gradientTransform="matrix(19.9335 -10.462 10.462 19.9335 20339.9492 -11848.7656)">
							<stop  offset="0" style="stop-color:#EF6724"/>
							<stop  offset="1" style="stop-color:#F49121"/>
						</linearGradient>
						
							<polygon style="clip-path:url(#SVGID_00000148632924043965250490000004600081752561695148_);fill:url(#SVGID_00000089547584417798138640000015297466209798200452_);" points="
							7.4,14.9 76,-21.1 113.5,50.2 44.9,86.2 						"/>
					</g>
				</g>
			</g>
		</g>
		<g>
			<g>
				<g>
					<g>
						<defs>
							<path id="SVGID_00000062872828032412722120000010091052312291259027_" d="M6.1,4.9C3.4,9,4.9,14.9,5.8,19.7
								c1.1,4.9,2.2,9.1,3,14.7c0.9-8.4,2.3-14,7.7-17.5c6.9-4.9,22.9-1.8,31.5,1.8c9.2,3.8,11.8,10.9,12.4,18.7
								c0.3,6-1,11.7-3.2,15.8c7.5-5,10.2-21,8-30.8c-2.3-7.3-5.9-11-20-14.6c-8.7-2-21.3-5.8-29.9-6.1C10.7,1.6,7.2,2.4,6.1,4.9"/>
						</defs>
						<clipPath id="SVGID_00000106107141711813781860000010402265480304804285_">
							<use xlink:href="#SVGID_00000062872828032412722120000010091052312291259027_"  style="overflow:visible;"/>
						</clipPath>
						
							<linearGradient id="SVGID_00000138537539216447533860000015152701664183998358_" gradientUnits="userSpaceOnUse" x1="-1036.2036" y1="24.3625" x2="-1034.1383" y2="24.3625" gradientTransform="matrix(30.0437 1.1056 -1.1056 30.0437 31162.2949 440.0408)">
							<stop  offset="0" style="stop-color:#8DC342"/>
							<stop  offset="0.9186" style="stop-color:#4E8D65"/>
							<stop  offset="1" style="stop-color:#488867"/>
						</linearGradient>
						
							<polygon style="clip-path:url(#SVGID_00000106107141711813781860000010402265480304804285_);fill:url(#SVGID_00000138537539216447533860000015152701664183998358_);" points="
							3.6,1.4 68.4,3.8 66.6,53.6 1.8,51.2 						"/>
					</g>
				</g>
			</g>
		</g>
		<g>
			<g>
				<g>
					<g>
						<defs>
							<path id="SVGID_00000145771159495246005640000005140809927055016356_" d="M23.4,61c2.3,7.3,5.9,11,20,14.6
								c13.4,3.1,35.7,10.2,39,2.9c2.8-4.1,1.2-10,0.3-14.7c-1.1-4.9-2.2-9.1-3-14.7c-0.9,8.4-2.3,14-7.7,17.5
								c-6.8,4.9-22.9,1.8-31.5-1.8C31.3,61,28.8,53.9,28.1,46.1c-0.3-6,1-11.7,3.2-15.8C23.8,35.2,21.1,51.3,23.4,61"/>
						</defs>
						<clipPath id="SVGID_00000136397280420248919280000004996451022908631954_">
							<use xlink:href="#SVGID_00000145771159495246005640000005140809927055016356_"  style="overflow:visible;"/>
						</clipPath>
						
							<linearGradient id="SVGID_00000157284096713758377070000016597447263198869904_" gradientUnits="userSpaceOnUse" x1="-1035.8751" y1="24.8611" x2="-1033.8099" y2="24.8611" gradientTransform="matrix(30.0443 1.1056 -1.1056 30.0443 31172.0469 455.1426)">
							<stop  offset="0" style="stop-color:#3D3993"/>
							<stop  offset="5.000000e-05" style="stop-color:#3D3993"/>
							<stop  offset="0.5056" style="stop-color:#A43895"/>
							<stop  offset="1" style="stop-color:#D82429"/>
						</linearGradient>
						
							<polygon style="clip-path:url(#SVGID_00000136397280420248919280000004996451022908631954_);fill:url(#SVGID_00000157284096713758377070000016597447263198869904_);" points="
							21.9,29.9 86.7,32.3 84.7,86 19.9,83.6 						"/>
					</g>
				</g>
			</g>
		</g>
	</g>
	<g>
		<g>
			<g>
				<g>
					<g>
						<g>
							<g>
								<path class="st4" d="M167.3,90.7h-1.5l-1.9-5.8c-0.1-0.3-0.2-0.7-0.2-1.1h-0.1c0,0.4-0.1,0.8-0.2,1.1l-1.8,5.8h-1.5
									c-0.8-2.7-1.5-5.6-2-8.5c0.4-0.1,1-0.1,1.4-0.1l1.3,5.8c0.1,0.3,0.1,0.8,0.2,1.1h0.1c0-0.4,0.1-0.8,0.2-1.2l1.8-5.7h1.4
									l1.8,5.8c0.1,0.3,0.2,0.7,0.3,1.1h0.1c0-0.4,0.1-0.8,0.2-1.2l1.2-5.8c0.4,0,0.9,0,1.3,0.1C168.8,85.1,168.1,87.9,167.3,90.7
									z"/>
								<path class="st4" d="M172.7,80.7c-0.6,0-0.9-0.4-0.9-0.9s0.3-0.9,0.9-0.9c0.6,0,0.9,0.4,0.9,0.9
									C173.6,80.3,173.3,80.7,172.7,80.7z M172,90.7v-8.5h1.5v8.5H172z"/>
								<path class="st4" d="M181.8,90.7v-6c0-0.8-0.4-1.3-1.4-1.3c-0.8,0-1.5,0.2-2.1,0.7v6.7h-1.5v-8.5c0.4-0.1,1-0.1,1.5-0.1V83
									h0.1c0.9-0.7,1.6-1,2.5-1c1.3,0,2.4,0.6,2.4,2.6v6.1H181.8z"/>
								<path class="st4" d="M193,90.9c-0.6,0-1.3-0.2-1.6-1h-0.1c-0.9,0.8-1.6,1-2.5,1c-1.9,0-3-1.3-3-4.2c0-3.4,1.5-4.7,3.7-4.7
									c0.5,0,1.1,0.1,1.6,0.3v-3.7c0.4-0.1,1-0.1,1.5-0.1v10.3c0,0.4,0.1,0.6,0.5,0.6h1v0.4C194.1,90.6,193.6,90.9,193,90.9z
									 M191.2,83.7c-0.4-0.2-1-0.4-1.6-0.4c-1.4,0-2.2,0.7-2.2,3.2c0,2.4,0.6,3,1.9,3c0.7,0,1.3-0.2,2-0.6L191.2,83.7L191.2,83.7z
									"/>
								<path class="st4" d="M197.9,90.9c-0.8,0-1.8-0.2-2.5-0.5c0.1-0.5,0.2-0.9,0.4-1.3c0.7,0.3,1.6,0.5,2.4,0.5
									c1,0,1.3-0.4,1.3-1.1c0-1.7-4-1.1-4-3.8c0-1.7,1.5-2.6,3.2-2.6c0.5,0,1.4,0.1,2,0.2c0,0.4-0.1,0.9-0.2,1.4
									c-0.6-0.2-1.5-0.3-2.2-0.3c-0.9,0-1.3,0.4-1.3,1.1c0,1.5,4,1,4,3.9C201.1,90.1,199.6,90.9,197.9,90.9z"/>
								<path class="st4" d="M206.4,90.9c-1.8,0-2.5-0.9-2.5-2.8v-4.7h-1v-1.3h1v-1.8c0.4-0.1,1-0.2,1.5-0.3v2.1h2.2
									c0,0.4,0,0.8-0.1,1.3h-2.1v4.8c0,1,0.3,1.3,1.1,1.3c0.4,0,0.9-0.1,1.2-0.3c0.1,0.4,0.2,0.9,0.2,1.3
									C207.6,90.8,206.9,90.9,206.4,90.9z"/>
								<path class="st4" d="M222.4,86.7h-5v0.1c0,1.8,0.5,2.7,2.4,2.7c0.8,0,1.7-0.2,2.2-0.5c0.1,0.4,0.3,0.9,0.4,1.4
									c-0.6,0.4-1.8,0.6-2.6,0.6c-2.5,0-3.9-1.4-3.9-4.3c0-3.2,1.5-4.5,3.5-4.5c2.1,0,3.1,1.3,3.1,3.5
									C222.4,85.8,222.4,86.3,222.4,86.7z M217.4,85.7h3.6c0-0.1,0-0.4,0-0.5c0-1.4-0.6-2-1.7-2C218.1,83.2,217.5,83.9,217.4,85.7
									z"/>
								<path class="st4" d="M231.4,88.9c0,0.4,0.1,0.6,0.5,0.6h1v0.4c0,0.7-0.5,1-1.1,1s-1.3-0.2-1.6-1l0,0c-0.8,0.7-1.5,1-2.3,1
									c-1.9,0-3.1-1.3-3.1-4.2c0-3.2,1.5-4.7,3.7-4.7c0.5,0,1,0.1,1.5,0.2c0.2-0.1,0.6-0.2,0.9-0.2c0.2,0,0.4,0,0.5,0.1
									L231.4,88.9L231.4,88.9z M229.9,83.6c-0.4-0.2-1-0.3-1.5-0.3c-1.5,0-2.2,0.7-2.2,3.2c0,2.4,0.6,3,1.9,3
									c0.7,0,1.3-0.2,1.8-0.6V83.6z"/>
								<path class="st4" d="M244.3,90.7v-6c0-0.8-0.4-1.3-1.4-1.3c-0.8,0-1.3,0.2-1.9,0.7v6.7h-1.5v-6c0-0.8-0.4-1.3-1.3-1.3
									c-0.7,0-1.3,0.2-1.9,0.7v6.7h-1.5v-8.5c0.4-0.1,1-0.1,1.5-0.1V83h0.1c0.8-0.7,1.4-1,2.3-1s1.6,0.3,2,1.1
									c0.9-0.8,1.7-1.1,2.6-1.1c1.3,0,2.4,0.7,2.4,2.6v6.1H244.3L244.3,90.7z"/>
							</g>
							<path class="st4" d="M214.4,83.6c-0.2-0.1-0.5-0.1-0.7-0.1c-0.6,0-1.2,0.1-1.9,0.8v6.3h-1.5v-8.5c0.4-0.1,1-0.1,1.5-0.1v1.1
								h0.1c0.9-1.1,1.5-1.2,2-1.2c0.2,0,0.5,0,0.6,0.1C214.5,82.6,214.5,83.1,214.4,83.6z"/>
						</g>
					</g>
				</g>
			</g>
			<g>
				<path class="st4" d="M248.6,90.8c-0.6,0-1-0.4-1-1.1c0-0.6,0.4-1.1,1-1.1s1,0.4,1,1.1S249.2,90.8,248.6,90.8z M248.6,88.8
					c-0.5,0-0.9,0.4-0.9,0.9s0.3,0.9,0.9,0.9s0.9-0.4,0.9-0.9C249.4,89.2,249.1,88.8,248.6,88.8z M249.1,90.4c-0.1,0-0.2,0-0.2,0
					l-0.1-0.2c-0.1-0.1-0.1-0.2-0.2-0.3h-0.2v0.5h-0.2v-1.3c0.1,0,0.3,0,0.4,0c0.2,0,0.4,0.1,0.4,0.4c0,0.2-0.1,0.3-0.2,0.3
					c0.1,0.1,0.1,0.2,0.2,0.3L249.1,90.4z M248.6,89.3c0,0-0.1,0-0.2,0v0.4h0.1c0.1,0,0.2-0.1,0.2-0.2
					C248.8,89.4,248.7,89.3,248.6,89.3z"/>
			</g>
		</g>
		<g>
			<path class="st4" d="M142.4,86.3c0,1.7-0.3,2.9-1,3.7c-0.7,0.8-1.6,1.1-2.8,1.1c-0.5,0-1-0.1-1.4-0.2s-0.9-0.3-1.3-0.6V78.6
				c0.1,0,0.2,0,0.4-0.1c0.2,0,0.3,0,0.5,0v4.4l0,0c0.4-0.3,0.8-0.6,1.2-0.7s0.8-0.2,1.3-0.2c0.4,0,0.9,0.1,1.2,0.2s0.7,0.4,1,0.7
				s0.5,0.8,0.6,1.3C142.4,84.8,142.4,85.5,142.4,86.3z M141.5,86.4c0-0.7,0-1.3-0.2-1.7c-0.1-0.5-0.2-0.8-0.5-1.1
				c-0.2-0.3-0.4-0.4-0.7-0.6s-0.6-0.2-1-0.2c-0.8,0-1.6,0.3-2.4,0.9v6c0.3,0.2,0.5,0.3,0.9,0.4c0.3,0.1,0.6,0.1,1,0.1
				s0.8-0.1,1.2-0.2s0.7-0.3,0.9-0.6s0.4-0.7,0.6-1.2C141.4,87.8,141.5,87.2,141.5,86.4z"/>
			<path class="st4" d="M151.4,82.3c-0.2,0.6-0.4,1.1-0.5,1.6s-0.4,1-0.6,1.6s-0.4,1.2-0.7,1.9s-0.5,1.3-0.7,1.9s-0.5,1.2-0.6,1.7
				c-0.2,0.6-0.5,1.1-0.7,1.6c-0.2,0.4-0.5,0.8-0.7,1.1c-0.3,0.3-0.5,0.5-0.8,0.6s-0.6,0.2-1,0.2c-0.2,0-0.4,0-0.7-0.1
				s-0.5-0.1-0.7-0.3c0-0.1,0-0.3,0.1-0.4s0.1-0.3,0.1-0.4c0.3,0.2,0.8,0.3,1.2,0.3c0.3,0,0.6-0.1,0.9-0.3c0.3-0.2,0.5-0.5,0.7-1.1
				l0.6-1.4c-0.3-0.7-0.5-1.4-0.8-2.1s-0.5-1.5-0.8-2.2s-0.5-1.5-0.8-2.2c-0.2-0.7-0.5-1.4-0.7-2.1c0.1,0,0.2-0.1,0.4-0.1
				s0.3,0,0.4,0l2.4,6.9c0.1,0.3,0.2,0.7,0.3,1l0,0c0.1-0.3,0.2-0.7,0.3-1.1l2.3-6.8c0.1,0,0.3,0,0.4,0
				C151.2,82.2,151.3,82.2,151.4,82.3z"/>
		</g>
	</g>
	<g>
		<g>
			<polygon class="st4" points="129.4,34.2 125.7,34.2 107.7,52.9 107.7,21.7 104.9,21.7 104.9,63.3 107.7,63.3 107.7,56.2 
				114.8,49.1 126.3,63.3 129.8,63.3 116.7,47.1 			"/>
			<rect x="138.3" y="22.8" class="st4" width="3.5" height="3.8"/>
			<rect x="138.6" y="34.2" class="st4" width="2.8" height="29.1"/>
			<path class="st4" d="M164.3,33.5c-5.3,0-9.5,2.8-11.4,6.2c0,0-1.8,3-1.8,7.3v16.3h2.8V46.5c0-6,4.4-10.4,10.1-10.4
				c5.9,0,9.2,3.9,9.2,9.9v17.3h2.8V45.5C175.9,38.6,171.6,33.5,164.3,33.5z"/>
			<path class="st4" d="M197.8,33.5c-7.9,0-13.8,6.7-13.8,15.2v0.1c0,9.1,6.6,15.2,14.3,15.2c5.6,0,9.1-2.3,12-5.5l-1.9-1.7
				c-2.4,2.6-5.5,4.6-10,4.6c-5.7,0-10.9-4.2-11.4-11.5h24.1c0.1-0.5,0.1-0.6,0.1-1.1C211.2,40.2,206,33.5,197.8,33.5z M187,47.4
				c0.5-6.5,5-11.3,10.7-11.3c6.7,0,10,5.4,10.4,11.3H187z"/>
			<path class="st4" d="M223,24.9h-2.8v9.3v2.6v19.1c0,5.5,3.6,8,8.2,8c1.8,0,3.2-0.3,4.7-1v-2.6c-1.6,0.7-2.9,1-4.3,1
				c-3.4,0-5.8-1.5-5.8-5.7V36.8h10.2v-2.6H223V24.9L223,24.9z"/>
			<rect x="242.6" y="34.2" class="st4" width="2.8" height="29.1"/>
			<rect x="242.3" y="22.8" class="st4" width="3.5" height="3.8"/>
			<path class="st4" d="M278.6,56.5c-2.5,2.7-5.6,4.8-9.8,4.8c-6.7,0-12-5.6-12-12.6v-0.1c0-7,5.1-12.5,11.8-12.5
				c4.3,0,7.2,2.2,9.7,4.8l2-2c-2.7-2.8-6.2-5.4-11.6-5.4c-8.3,0-14.8,7.1-14.8,15.2v0.1c0,8.2,6.4,15.1,14.8,15.1
				c5.4,0,8.9-2.4,11.9-5.8L278.6,56.5z"/>
		</g>
	</g>
</g>
<polygon class="st4" points="281.7,59.8 281.7,60.2 282.4,60.2 282.4,63.2 282.8,63.2 282.8,60.2 283.5,60.2 283.5,59.8 "/>
<polygon class="st4" points="285.5,59.8 285,62.4 284.9,62.4 284.4,59.8 283.8,59.8 283.8,63.2 284.1,63.2 284.1,60.1 284.1,60.1 
	284.8,63.2 285,63.2 285.8,60.1 285.8,60.1 285.8,63.2 286.1,63.2 286.1,59.8 "/>
</svg>
